HIERARCHY
ROOT Hips
{
	OFFSET 0.000000 0.000000 0.000000
	CHANNELS 6 Xposition Yposition Zposition Zrotation Yrotation Xrotation 
	JOINT LHipJoint
	{
		OFFSET 0.000000 0.000000 0.000000
		CHANNELS 3 Zrotation Yrotation Xrotation
		JOINT LeftUpLeg
		{
			OFFSET 1.363060 -1.794630 0.839290
			CHANNELS 3 Zrotation Yrotation Xrotation
			JOINT LeftLeg
			{
				OFFSET 2.448110 -6.726130 0.000000
				CHANNELS 3 Zrotation Yrotation Xrotation
				JOINT LeftFoot
				{
					OFFSET 2.562200 -7.039590 0.000000
					CHANNELS 3 Zrotation Yrotation Xrotation
					JOINT LeftToeBase
					{
						OFFSET 0.157640 -0.433110 2.322550
						CHANNELS 3 Zrotation Yrotation Xrotation
						End Site
						{
							OFFSET 0.000000 0.000000 0.000000
						}
					}
				}
			}
		}
	}
	JOINT RHipJoint
	{
		OFFSET 0.000000 0.000000 0.000000
		CHANNELS 3 Zrotation Yrotation Xrotation
		JOINT RightUpLeg
		{
			OFFSET -1.305520 -1.794630 0.839290
			CHANNELS 3 Zrotation Yrotation Xrotation
			JOINT RightLeg
			{
				OFFSET -2.542530 -6.985550 0.000000
				CHANNELS 3 Zrotation Yrotation Xrotation
				JOINT RightFoot
				{
					OFFSET -2.568260 -7.056230 0.000000
					CHANNELS 3 Zrotation Yrotation Xrotation
					JOINT RightToeBase
					{
						OFFSET -0.164730 -0.452590 2.363150
						CHANNELS 3 Zrotation Yrotation Xrotation
						End Site
						{
							OFFSET 0.000000 0.000000 0.000000
						}
					}
				}
			}
		}
	}
	JOINT LowerBack
	{
		OFFSET 0.000000 0.000000 0.000000
		CHANNELS 3 Zrotation Yrotation Xrotation
		JOINT Spine
		{
			OFFSET 0.028270 2.035590 -0.193380
			CHANNELS 3 Zrotation Yrotation Xrotation
			JOINT Spine1
			{
				OFFSET 0.056720 2.048850 -0.042750
				CHANNELS 3 Zrotation Yrotation Xrotation
				JOINT Neck
				{
					OFFSET 0.000000 0.000000 0.000000
					CHANNELS 3 Zrotation Yrotation Xrotation
					JOINT Neck1
					{
						OFFSET -0.054170 1.746240 0.172020
						CHANNELS 3 Zrotation Yrotation Xrotation
						JOINT Head
						{
							OFFSET 0.104070 1.761360 -0.123970
							CHANNELS 3 Zrotation Yrotation Xrotation
							End Site
							{
								OFFSET 0.000000 0.000000 0.000000
							}
						}
					}
				}
				JOINT LeftShoulder
				{
					OFFSET 0.000000 0.000000 0.000000
					CHANNELS 3 Zrotation Yrotation Xrotation
					JOINT LeftArm
					{
						OFFSET 3.362410 1.200890 -0.311210
						CHANNELS 3 Zrotation Yrotation Xrotation
						JOINT LeftForeArm
						{
							OFFSET 4.983000 -0.000000 -0.000000
							CHANNELS 3 Zrotation Yrotation Xrotation
							JOINT LeftHand
							{
								OFFSET 3.483560 -0.000000 -0.000000
								CHANNELS 3 Zrotation Yrotation Xrotation
								JOINT LeftFingerBase
								{
									OFFSET 0.000000 0.000000 0.000000
									CHANNELS 3 Zrotation Yrotation Xrotation
									JOINT LeftHandIndex1
									{
										OFFSET 0.715260 -0.000000 -0.000000
										CHANNELS 3 Zrotation Yrotation Xrotation
										End Site
										{
											OFFSET 0.000000 0.000000 0.000000
										}
									}
								}
								JOINT LThumb
								{
									OFFSET 0.000000 0.000000 0.000000
									CHANNELS 3 Zrotation Yrotation Xrotation
									End Site
									{
										OFFSET 0.000000 0.000000 0.000000
									}
								}
							}
						}
					}
				}
				JOINT RightShoulder
				{
					OFFSET 0.000000 0.000000 0.000000
					CHANNELS 3 Zrotation Yrotation Xrotation
					JOINT RightArm
					{
						OFFSET -3.136600 1.374050 -0.404650
						CHANNELS 3 Zrotation Yrotation Xrotation
						JOINT RightForeArm
						{
							OFFSET -5.241900 -0.000000 -0.000000
							CHANNELS 3 Zrotation Yrotation Xrotation
							JOINT RightHand
							{
								OFFSET -3.444170 -0.000000 -0.000000
								CHANNELS 3 Zrotation Yrotation Xrotation
								JOINT RightFingerBase
								{
									OFFSET 0.000000 0.000000 0.000000
									CHANNELS 3 Zrotation Yrotation Xrotation
									JOINT RightHandIndex1
									{
										OFFSET -0.622530 -0.000000 -0.000000
										CHANNELS 3 Zrotation Yrotation Xrotation
										End Site
										{
											OFFSET 0.000000 0.000000 0.000000
										}
									}
								}
								JOINT RThumb
								{
									OFFSET 0.000000 0.000000 0.000000
									CHANNELS 3 Zrotation Yrotation Xrotation
									End Site
									{
										OFFSET 0.000000 0.000000 0.000000
									}
								}
							}
						}
					}
				}
			}
		}
	}
}
MOTION
Frames: 8
Frame Time: 0.008333
-20.820808 16.082989 -2.436455 -111.674493 88.701088 -87.962783 -13.166259 4.230159 0.544489 -0.892904 10.401569 3.833661 -1.220641 -0.414640 5.964782 0.885951 7.396357 0.974117 1.010901 0.000000 -78.472000 6.711318 -0.756029 6.177804 5.881514 12.100814 -62.431356 1.597424 -2.443996 38.883471 -1.326238 -2.975520 -9.199585 -0.367500 0.000000 -29.201201 7.882465 -3.660574 -6.333804 1.027390 -4.604558 -4.324360 -7.146420 -4.766508 0.289041 8.110665 -6.213177 -7.580194 -3.904677 -0.295180 -0.008415 0.000000 0.000000 0.000000 -7.631098 0.480867 2.667109 -57.771011 -20.945576 21.352548 -2.489353 -52.297877 -0.018328 4.645718 0.694357 0.020536 -0.156260 0.248110 -0.000000 0.000000 0.000000 0.000000 0.000000 0.000000 0.000000 15.049883 -5.601805 2.805704 60.206205 -6.859129 -18.068572 4.098604 2.088632 0.003536 -5.151154 3.872943 -0.182636 0.147965 -0.073530 -0.000000 0.000000 0.000000 0.000000 0.000000 0.000000 0.000000 
-20.585011 16.101209 -2.396175 -107.775245 88.620863 -83.943589 -13.231498 4.303869 0.662640 -0.625040 9.946348 3.295163 -0.987830 -0.211708 7.771579 0.987467 8.350890 3.230950 1.453600 0.000000 -80.310300 6.641835 -0.888410 6.240518 6.156087 12.580408 -61.887483 1.484725 -2.461103 39.444173 -1.489787 -3.700658 -9.254041 -0.401700 -0.000000 -28.078099 8.092103 -3.592220 -6.562078 1.075287 -4.574143 -4.373828 -7.126706 -4.737798 0.265936 8.077491 -6.015323 -7.585477 -3.925977 -0.297113 -0.008619 0.000000 0.000000 0.000000 -7.728437 0.674507 2.635808 -58.080719 -20.152647 21.156448 -2.480645 -52.114897 -0.018712 4.889084 0.548880 0.015226 -0.155973 0.244746 -0.000000 0.000000 0.000000 0.000000 0.000000 0.000000 0.000000 15.062057 -5.371085 2.787176 60.135922 -6.422825 -17.793950 4.082240 2.031994 0.003151 -5.571167 3.918566 -0.199434 0.149140 -0.074054 -0.000000 0.000000 0.000000 0.000000 0.000000 0.000000 0.000000 
-20.350175 16.124479 -2.353416 -103.358978 88.540810 -79.420390 -13.275758 4.347818 0.766713 -0.413804 9.490870 2.576859 -0.737989 -0.010989 9.902932 1.106779 9.285831 5.577933 1.957700 0.000000 -81.208700 6.592591 -1.018368 6.297545 6.430465 13.017242 -61.294420 1.398157 -2.474299 39.894799 -1.626398 -4.287771 -9.374146 -0.417899 0.000000 -27.102200 8.260554 -3.522221 -6.765360 1.112064 -4.538158 -4.418639 -7.114698 -4.703578 0.239179 8.071329 -5.779202 -7.583912 -3.951473 -0.299392 -0.007465 0.000000 0.000000 0.000000 -7.801619 0.866865 2.608512 -58.412925 -19.318314 20.927600 -2.475213 -51.788019 -0.019163 5.171525 0.407106 0.009606 -0.155511 0.240289 0.000000 0.000000 0.000000 0.000000 0.000000 0.000000 0.000000 15.115982 -5.101691 2.768798 60.131363 -5.916317 -17.480432 4.061441 1.975297 0.002663 -5.995688 3.932152 -0.215033 0.150102 -0.074512 -0.000000 0.000000 0.000000 0.000000 0.000000 0.000000 0.000000 
-20.117666 16.152979 -2.308655 -98.528651 88.457230 -74.502680 -13.295939 4.356722 0.857191 -0.270296 9.027736 1.675655 -0.477920 0.180001 12.371413 1.241519 10.155465 7.936563 2.497100 -0.000000 -80.963700 6.568880 -1.141611 6.339840 6.712235 13.386260 -60.630987 1.342166 -2.483812 40.222577 -1.729280 -4.707092 -9.568359 -0.411500 0.000000 -26.330800 8.388261 -3.451278 -6.934088 1.137289 -4.496384 -4.456935 -7.110767 -4.663617 0.208667 8.090480 -5.507366 -7.574329 -3.981156 -0.302006 -0.004732 0.000000 0.000000 0.000000 -7.852740 1.051361 2.587135 -58.761879 -18.458085 20.662966 -2.473081 -51.306391 -0.019688 5.495025 0.277428 0.003876 -0.154791 0.234725 0.000000 0.000000 0.000000 0.000000 0.000000 0.000000 0.000000 15.210660 -4.796645 2.751215 60.196343 -5.333491 -17.125526 4.035699 1.929784 0.002089 -6.420038 3.920835 -0.229331 0.150831 -0.074969 -0.000000 0.000000 0.000000 0.000000 0.000000 0.000000 0.000000 
-19.888484 16.186773 -2.262433 -93.386855 88.366645 -69.297776 -13.289476 4.327341 0.935117 -0.205041 8.550776 0.590173 -0.218679 0.354511 15.177637 1.386997 10.915662 10.204304 3.033300 -0.000000 -79.445599 6.574746 -1.254235 6.360388 7.007891 13.665483 -59.877086 1.319488 -2.488831 40.413265 -1.794163 -4.941993 -9.834845 -0.381600 0.000000 -25.810300 8.477592 -3.379818 -7.062138 1.151405 -4.448690 -4.487305 -7.113828 -4.617801 0.175502 8.128731 -5.199389 -7.555360 -4.014173 -0.304879 -0.000130 0.000000 0.000000 0.000000 -7.888066 1.229248 2.573556 -59.120727 -17.594566 20.367256 -2.474602 -50.659778 -0.020284 5.859834 0.167767 -0.001467 -0.153765 0.228079 0.000000 0.000000 0.000000 0.000000 0.000000 0.000000 0.000000 15.336700 -4.456312 2.734358 60.334338 -4.653537 -16.824185 4.003395 1.857656 0.001517 -6.826841 3.930230 -0.244228 0.151208 -0.075815 -0.000000 0.000000 0.000000 0.000000 0.000000 0.000000 0.000000 
-19.663189 16.225837 -2.215420 -88.042010 88.262966 -63.914985 -13.255283 4.259650 1.000302 -0.222954 8.060973 -0.679380 0.025711 0.509014 18.305438 1.535917 11.529263 12.267760 3.521300 0.000000 -76.648000 6.611832 -1.353250 6.354803 7.324163 13.840596 -59.015172 1.331326 -2.487200 40.449230 -1.820004 -4.991531 -10.160976 -0.331400 0.000000 -25.567000 8.531839 -3.305520 -7.145443 1.154775 -4.392484 -4.509275 -7.123452 -4.563555 0.138629 8.183908 -4.870608 -7.526769 -4.050677 -0.308026 0.006427 0.000000 0.000000 0.000000 -7.902218 1.382449 2.567051 -59.498207 -16.726095 20.026272 -2.478474 -49.848512 -0.020914 6.258517 0.083420 -0.006022 -0.152167 0.220443 0.000000 0.000000 0.000000 0.000000 0.000000 0.000000 0.000000 15.494926 -4.094590 2.719358 60.543565 -3.894818 -16.421658 3.966968 1.847835 0.000876 -7.221217 3.913752 -0.257025 0.151411 -0.076629 -0.000000 0.000000 0.000000 0.000000 0.000000 0.000000 0.000000 
-19.442226 16.270008 -2.168491 -82.647320 88.136753 -58.506542 -13.197525 4.157605 1.051937 -0.317451 7.571871 -2.132782 0.241696 0.644791 21.720438 1.679084 11.970768 14.019694 3.917600 0.000000 -72.722300 6.675939 -1.438937 6.323566 7.670399 13.910254 -58.030645 1.377616 -2.475077 40.308642 -1.809594 -4.872156 -10.524984 -0.267700 0.000001 -25.608100 8.564425 -3.226522 -7.185689 1.150819 -4.326909 -4.522871 -7.136470 -4.500032 0.100550 8.242872 -4.515204 -7.486806 -4.088742 -0.311297 0.015407 0.000000 0.000000 0.000000 -7.910710 1.527302 2.569061 -59.888966 -15.886249 19.660739 -2.485662 -48.865151 -0.021559 6.686740 0.031008 -0.009191 -0.150035 0.211939 0.000000 0.000000 0.000000 0.000000 0.000000 0.000000 0.000000 15.663475 -3.705219 2.704526 60.826082 -3.034940 -16.098031 3.924915 1.825998 0.000324 -7.570866 3.951558 -0.271920 0.151242 -0.078060 -0.000000 0.000000 0.000000 0.000000 0.000000 0.000000 0.000000 
-19.225937 16.318954 -2.122393 -77.354834 87.982453 -53.221702 -13.121266 4.029223 1.088625 -0.482495 7.097896 -3.761942 0.419876 0.768033 25.363188 1.808410 12.243271 15.381972 4.196900 0.000000 -67.995000 6.761505 -1.511905 6.268680 8.049871 13.877621 -56.914360 1.456289 -2.448148 39.973251 -1.767823 -4.609735 -10.900804 -0.198700 -0.000000 -25.923400 8.582869 -3.139942 -7.185742 1.141556 -4.249671 -4.528737 -7.150135 -4.424935 0.061782 8.296782 -4.138091 -7.434265 -4.127196 -0.314614 0.027229 0.000000 0.000000 0.000000 -7.917293 1.663718 2.578820 -60.298560 -15.084393 19.275713 -2.495569 -47.713215 -0.022173 7.133431 0.013701 -0.010471 -0.147243 0.202734 0.000000 0.000000 0.000000 0.000000 0.000000 0.000000 0.000000 15.829415 -3.291601 2.689150 61.179442 -2.076935 -15.869818 3.878416 1.797457 -0.000087 -7.858007 4.063142 -0.290012 0.150686 -0.080223 -0.000000 0.000000 0.000000 0.000000 0.000000 0.000000 0.000000 
